<?xml version="1.0" encoding="utf-8"?>
<!-- Uploaded to: SVG Repo, www.svgrepo.com, Generator: SVG Repo Mixer Tools -->
<svg width="800px" height="800px" viewBox="0 0 32 32" fill="none" xmlns="http://www.w3.org/2000/svg">
<g clip-path="url(#clip0_901_2846)">
<path d="M31 16C31 18.13 30.55 20.16 29.75 22H2.25C1.45 20.16 1 18.13 1 16C1 7.72 7.72 1 16 1C24.28 1 31 7.72 31 16Z" fill="#FFC44D"/>
<path d="M2.25 22H29.75C27.43 27.3 22.15 31 16 31C9.85 31 4.57 27.3 2.25 22Z" fill="#FFE6EA"/>
<path d="M16 4V6M22 5.6074L21 7.3394M10 5.6074L11 7.3394M5.6074 10L7.3394 11M26.3926 10L15.9996 16M2.5 22H29.5M31 16C31 7.716 24.284 1 16 1C7.716 1 1 7.716 1 16C1 24.284 7.716 31 16 31C24.284 31 31 24.284 31 16Z" stroke="#000000" stroke-width="2" stroke-linecap="round" stroke-linejoin="round"/>
</g>
<defs>
<clipPath id="clip0_901_2846">
<rect width="32" height="32" fill="white"/>
</clipPath>
</defs>
</svg>