<?xml version="1.0" encoding="iso-8859-1"?>
<!-- Uploaded to: SVG Repo, www.svgrepo.com, Generator: SVG Repo Mixer Tools -->
<svg version="1.1" id="Layer_1" xmlns="http://www.w3.org/2000/svg" xmlns:xlink="http://www.w3.org/1999/xlink" 
	 viewBox="0 0 512 512" xml:space="preserve">
<path style="fill:#9D9D9D;" d="M255.999,0l-10.45,14.977l10.45,16.37c92.607,0,167.949,75.341,167.949,167.949h31.347
	C455.295,89.404,365.891,0,255.999,0z"/>
<path style="fill:#D4D4D4;" d="M56.704,199.295h31.347c0-92.607,75.341-167.949,167.949-167.949V0
	C146.108,0,56.704,89.404,56.704,199.295z"/>
<polygon style="fill:#027ACD;" points="75.188,254.491 160.217,254.491 160.217,144.101 75.188,144.101 54.288,204.975 "/>
<path style="fill:#3EAFF5;" d="M63.679,144.101c-16.727,0-30.286,13.56-30.286,30.286v49.817c0,16.727,13.56,30.286,30.286,30.286
	h11.51V144.101H63.679z"/>
<path style="fill:#027ACD;" d="M448.32,144.101h-11.509l-20.899,66.62l20.899,54.22l9.405-10.45h2.104
	c16.727,0,30.286-13.56,30.286-30.286v-49.817C478.607,157.66,465.047,144.101,448.32,144.101z"/>
<polygon style="fill:#3EAFF5;" points="351.782,144.101 351.782,254.491 414.869,254.491 436.811,264.94 436.811,144.101 "/>
<polygon style="fill:#F17A00;" points="400.022,199.295 235.1,199.295 255.999,375.925 400.022,375.925 "/>
<rect x="111.981" y="199.293" style="fill:#FF9500;" width="144.018" height="176.63"/>
<path style="fill:#027ACD;" d="M463.934,423.111c0-53.525-43.39-96.916-96.916-96.916H255.999L235.1,411.34L255.999,512h207.935
	V423.111z"/>
<path style="fill:#7ACDFF;" d="M144.981,326.194c-53.526,0-96.916,43.391-96.916,96.916V512h207.935V326.194H144.981z"/>
<path style="fill:#FDDC99;" d="M315.026,294.846H235.1l20.899,120.443l0,0l0,0c32.6,0,59.026-26.428,59.026-59.026V294.846z"/>
<g>
	<path style="fill:#FEE3B5;" d="M196.973,294.846v61.417c0,32.6,26.427,59.026,59.026,59.026V294.846H196.973z"/>
	<path style="fill:#FEE3B5;" d="M400.022,159.216L235.1,65.606l20.899,283.155c82.547,0,149.465-66.917,149.465-149.465
		C405.465,185.411,403.564,171.972,400.022,159.216z"/>
</g>
<path style="fill:#FFF3D8;" d="M111.977,159.216c-3.542,12.756-5.443,26.195-5.443,40.079c0,82.547,66.917,149.465,149.465,149.465
	V65.606L111.977,159.216z"/>
<path style="fill:#F17A00;" d="M255.999,49.83L235.1,82.199l20.899,38.744c26.317,27.09,63.13,43.929,103.881,43.929
	c13.93,0,27.393-1.983,40.142-5.655C382.504,96.134,324.663,49.83,255.999,49.83z"/>
<path style="fill:#FF9500;" d="M111.977,159.216c12.749,3.671,26.212,5.655,40.142,5.655c40.751,0,77.564-16.839,103.881-43.929
	V49.83C187.336,49.83,129.495,96.134,111.977,159.216z"/>
<path style="fill:#9D9D9D;" d="M278.818,302.281l-0.2-31.346l92.892-0.592l27.279,0.297c8.871-0.039,16.078-7.267,16.078-16.148l0,0
	h31.347l0,0c0,26.188-21.307,47.495-47.495,47.495l-0.17-0.001l-27.107-0.295L278.818,302.281z"/>
<path style="fill:#6F6F6F;" d="M265.934,251.88h-9.935L235.1,287.611l20.899,33.725h9.935c19.149,0,34.727-15.579,34.727-34.728
	C300.662,267.458,285.083,251.88,265.934,251.88z"/>
<path style="fill:#9D9D9D;" d="M246.065,251.88c-19.149,0-34.727,15.579-34.727,34.728c0,19.15,15.578,34.728,34.727,34.728h9.935
	V251.88L246.065,251.88L246.065,251.88z"/>
</svg>