<?xml version="1.0" encoding="iso-8859-1"?>
<!-- Uploaded to: SVG Repo, www.svgrepo.com, Generator: SVG Repo Mixer Tools -->
<svg height="800px" width="800px" version="1.1" id="Layer_1" xmlns="http://www.w3.org/2000/svg" xmlns:xlink="http://www.w3.org/1999/xlink" 
	 viewBox="0 0 451.277 451.277" xml:space="preserve">
<circle style="fill:#EFC84A;" cx="225.638" cy="225.638" r="225.638"/>
<path style="opacity:0.1;enable-background:new    ;" d="M451.253,227.336L341.489,117.571l-11.244,4.287l-25.504-25.504h-21.166
	l-2.509,15.617c-7.4,2.143-14.038,6.047-19.448,11.24l-14.791-5.641l-10.583,18.33l11.926,11.926
	c-0.62,3.011-1.042,6.095-1.042,9.291c0,3.875,0.52,7.619,1.404,11.222l-12.288,9.994l10.583,18.331l5.898,5.898l-6.974,2.659
	l-39.761-39.761h-32.999l-3.91,24.348c-11.537,3.341-21.885,9.427-30.319,17.523l-23.059-8.794l-16.499,28.578l18.519,18.519
	c-0.972,4.709-1.551,9.559-1.551,14.557c0,6.041,0.811,11.879,2.188,17.495l-19.156,15.582l16.499,28.578l128.62,128.62
	C359.643,441.003,450.383,344.89,451.253,227.336z"/>
<path style="fill:#E56353;" d="M262.813,260.191c0-6.041-0.811-11.879-2.188-17.495l19.156-15.581l-16.499-28.578l-23.059,8.794
	c-8.433-8.096-18.783-14.182-30.319-17.523l-3.911-24.347h-32.999l-3.91,24.348c-11.537,3.341-21.885,9.427-30.319,17.523
	l-23.059-8.794l-16.499,28.578l19.156,15.581c-1.377,5.616-2.188,11.454-2.188,17.495c0,6.041,0.811,11.879,2.188,17.495
	l-19.156,15.582l16.499,28.578l23.059-8.794c8.434,8.095,18.782,14.182,30.319,17.523l3.91,24.348h32.999l3.91-24.348
	c11.537-3.341,21.886-9.427,30.32-17.523l23.059,8.794l16.499-28.578l-19.156-15.581
	C262.002,272.07,262.813,266.232,262.813,260.191z M189.493,310.511c-27.791,0-50.319-22.529-50.319-50.319
	s22.529-50.319,50.319-50.319c27.79,0,50.319,22.529,50.319,50.319S217.283,310.511,189.493,310.511z"/>
<path style="fill:#D15241;" d="M189.493,209.872c-27.791,0-50.319,22.529-50.319,50.319s22.529,50.319,50.319,50.319
	c27.79,0,50.319-22.529,50.319-50.319S217.283,209.872,189.493,209.872z M189.493,302.738c-23.498,0-42.547-19.049-42.547-42.547
	s19.049-42.546,42.547-42.546c23.498,0,42.546,19.048,42.546,42.546S212.991,302.738,189.493,302.738z"/>
<path style="fill:#44C4A1;" d="M341.189,157.118c0-3.875-0.52-7.62-1.404-11.222l12.288-9.994l-10.583-18.33l-14.791,5.641
	c-5.41-5.193-12.048-9.097-19.448-11.24l-2.509-15.617h-21.166l-2.509,15.617c-7.4,2.143-14.038,6.047-19.448,11.24l-14.791-5.641
	l-10.583,18.33l12.288,9.994c-0.883,3.603-1.404,7.347-1.404,11.222s0.52,7.619,1.404,11.222l-12.288,9.994l10.583,18.331
	l14.791-5.641c5.41,5.193,12.048,9.097,19.448,11.24l2.509,15.617h21.166l2.508-15.617c7.401-2.143,14.039-6.047,19.448-11.24
	l14.791,5.641l10.583-18.331l-12.288-9.994C340.669,164.738,341.189,160.993,341.189,157.118z M294.159,189.394
	c-17.826,0-32.277-14.451-32.277-32.276s14.451-32.276,32.277-32.276c17.826,0,32.276,14.451,32.276,32.276
	S311.984,189.394,294.159,189.394z"/>
<path style="fill:#3EA69B;" d="M294.159,124.842c-17.826,0-32.277,14.451-32.277,32.276s14.451,32.276,32.277,32.276
	c17.826,0,32.276-14.451,32.276-32.276S311.984,124.842,294.159,124.842z M294.159,184.409c-15.073,0-27.291-12.218-27.291-27.291
	c0-15.072,12.218-27.29,27.291-27.29c15.072,0,27.29,12.218,27.29,27.29C321.449,172.19,309.231,184.409,294.159,184.409z"/>
</svg>